<svg width="295" height="239" viewBox="0 0 295 239" fill="none" xmlns="http://www.w3.org/2000/svg">
<path d="M294.68 39.97C294.68 61.73 277.04 79.3701 255.28 79.3701C249.11 79.3701 243.26 77.94 238.05 75.41C224.92 69.02 215.88 55.55 215.88 39.97C215.88 18.21 233.52 0.570007 255.28 0.570007C274.81 0.570007 291 14.77 294.13 33.38C294.49 35.52 294.68 37.73 294.68 39.97Z" fill="#B9B9B9"/>
<path d="M294.68 39.97C294.68 61.73 277.04 79.3701 255.28 79.3701C249.11 79.3701 243.26 77.94 238.05 75.41C237.69 73.27 237.5 71.07 237.5 68.82C237.5 47.05 255.14 29.42 276.9 29.42C283.08 29.42 288.94 30.85 294.14 33.39C294.49 35.52 294.68 37.73 294.68 39.97Z" fill="#FFD0A1"/>
<path d="M0 39.97C0 61.73 17.64 79.3701 39.4 79.3701C45.57 79.3701 51.42 77.94 56.63 75.41C69.76 69.02 78.8 55.55 78.8 39.97C78.8 18.21 61.16 0.570007 39.4 0.570007C19.87 0.570007 3.68 14.77 0.550003 33.38C0.190003 35.52 0 37.73 0 39.97Z" fill="#B9B9B9"/>
<path d="M0 39.97C0 61.73 17.64 79.3701 39.4 79.3701C45.57 79.3701 51.42 77.94 56.63 75.41C56.99 73.27 57.18 71.07 57.18 68.82C57.18 47.05 39.54 29.42 17.78 29.42C11.6 29.42 5.73999 30.85 0.539993 33.39C0.189993 35.52 0 37.73 0 39.97Z" fill="#FFD0A1"/>
<path d="M264.7 97.6C260.51 94.13 257.61 89.31 256.6 83.97C247.56 36.27 202.09 0 147.34 0C92.59 0 47.12 36.27 38.08 83.97C37.07 89.31 34.17 94.14 29.98 97.6C13.47 111.25 3.09 130.99 3.09 152.95C3.09 194.15 39.61 227.54 84.66 227.54C100.41 227.54 115.11 223.46 127.58 216.39C139.8 209.46 154.89 209.46 167.11 216.39C179.58 223.46 194.28 227.54 210.03 227.54C255.08 227.54 291.6 194.14 291.6 152.95C291.6 130.99 281.22 111.25 264.7 97.6Z" fill="#B9B9B9"/>
<path d="M195.58 125.34C184.73 125.34 174.56 127.99 165.81 132.61C154.26 138.71 140.44 138.71 128.89 132.61C120.13 127.98 109.96 125.34 99.12 125.34C66.21 125.34 39.53 149.69 39.53 179.74C39.53 197.65 46.96 238.09 147.36 238.09C247.76 238.09 255.17 197.64 255.17 179.74C255.17 149.69 228.49 125.34 195.58 125.34Z" fill="#FFD0A1"/>
<path d="M165.94 169.01C158.24 169.01 151.43 165.14 147.34 159.24C143.26 165.14 136.45 169.01 128.74 169.01C120.7 169.01 113.2 164.68 109.17 157.72C108.06 155.81 108.72 153.36 110.63 152.25C112.54 151.14 114.99 151.8 116.1 153.71C118.71 158.21 123.55 161.01 128.74 161.01C136.79 161.01 143.34 154.46 143.34 146.41C143.34 144.2 145.13 142.41 147.34 142.41C149.55 142.41 151.34 144.2 151.34 146.41C151.34 154.46 157.89 161.01 165.94 161.01C171.13 161.01 175.98 158.21 178.58 153.71C179.69 151.8 182.13 151.14 184.05 152.25C185.96 153.36 186.61 155.8 185.51 157.72C181.47 164.68 173.98 169.01 165.94 169.01Z" fill="#916234"/>
<path d="M151.65 146.41H143.03C136.07 146.41 130.44 140.77 130.44 133.82C130.44 126.86 136.08 121.23 143.03 121.23H151.65C158.61 121.23 164.24 126.87 164.24 133.82C164.25 140.77 158.61 146.41 151.65 146.41Z" fill="#1B1C21"/>
<path d="M90.21 121.8C98.069 121.8 104.44 115.429 104.44 107.57C104.44 99.711 98.069 93.34 90.21 93.34C82.351 93.34 75.98 99.711 75.98 107.57C75.98 115.429 82.351 121.8 90.21 121.8Z" fill="#1B1C21"/>
<path d="M93.77 109.55C96.8297 109.55 99.31 107.07 99.31 104.01C99.31 100.95 96.8297 98.47 93.77 98.47C90.7103 98.47 88.23 100.95 88.23 104.01C88.23 107.07 90.7103 109.55 93.77 109.55Z" fill="#E9E9E9"/>
<path d="M204.47 121.8C212.329 121.8 218.7 115.429 218.7 107.57C218.7 99.711 212.329 93.34 204.47 93.34C196.611 93.34 190.24 99.711 190.24 107.57C190.24 115.429 196.611 121.8 204.47 121.8Z" fill="#1B1C21"/>
<path d="M208.03 109.55C211.09 109.55 213.57 107.07 213.57 104.01C213.57 100.95 211.09 98.47 208.03 98.47C204.97 98.47 202.49 100.95 202.49 104.01C202.49 107.07 204.97 109.55 208.03 109.55Z" fill="#E9E9E9"/>
<path d="M164.73 1.24005C164.54 21.5501 159.48 40.48 150.84 56.52C149.34 59.31 145.35 59.31 143.85 56.52C135.21 40.48 130.15 21.5501 129.96 1.24005C135.62 0.430051 141.43 0 147.35 0C153.26 0 159.07 0.430051 164.73 1.24005Z" fill="#7C7C7C"/>
<path d="M203.75 14.08C197.49 26.6 189.82 37.64 181.29 46.81C178.88 49.4 174.54 47.72 174.45 44.19C174.15 31.52 175.78 18.01 179.49 4.32001C188.07 6.70001 196.2 10 203.75 14.08Z" fill="#7C7C7C"/>
<path d="M113.38 46.82C104.85 37.65 97.19 26.61 90.93 14.09C98.48 10 106.62 6.70002 115.18 4.33002C118.89 18.01 120.52 31.52 120.22 44.2C120.14 47.73 115.79 49.4 113.38 46.82Z" fill="#7C7C7C"/>
<path d="M235.12 143.99C247.569 143.99 257.66 140.981 257.66 137.27C257.66 133.559 247.569 130.55 235.12 130.55C222.672 130.55 212.58 133.559 212.58 137.27C212.58 140.981 222.672 143.99 235.12 143.99Z" fill="#FFAFA4"/>
<path d="M59.57 143.99C72.0185 143.99 82.11 140.981 82.11 137.27C82.11 133.559 72.0185 130.55 59.57 130.55C47.1215 130.55 37.03 133.559 37.03 137.27C37.03 140.981 47.1215 143.99 59.57 143.99Z" fill="#FFAFA4"/>
</svg>
