<svg width="210" height="65" viewBox="0 0 210 65" fill="none" xmlns="http://www.w3.org/2000/svg">
<path d="M80.4494 10.9121C80.4494 16.8527 75.6336 21.6685 69.693 21.6685C68.0085 21.6685 66.4114 21.2781 64.9891 20.5874C61.4045 18.8429 58.9365 15.1655 58.9365 10.9121C58.9365 4.97144 63.7523 0.155609 69.693 0.155609C75.0248 0.155609 79.4447 4.03229 80.2992 9.11294C80.3975 9.69717 80.4494 10.3005 80.4494 10.9121Z" fill="#B9B9B9"/>
<path d="M80.4494 10.912C80.4494 16.8527 75.6336 21.6685 69.693 21.6685C68.0085 21.6685 66.4114 21.2781 64.9891 20.5874C64.8908 20.0031 64.8389 19.4025 64.8389 18.7883C64.8389 12.8449 69.6548 8.03183 75.5954 8.03183C77.2825 8.03183 78.8824 8.42222 80.302 9.11566C80.3975 9.69716 80.4494 10.3005 80.4494 10.912Z" fill="#FFD0A1"/>
<path d="M0 10.9121C0 16.8527 4.81582 21.6685 10.7564 21.6685C12.4409 21.6685 14.038 21.2781 15.4603 20.5874C19.0449 18.8429 21.5129 15.1655 21.5129 10.9121C21.5129 4.97144 16.697 0.155609 10.7564 0.155609C5.42463 0.155609 1.00466 4.03229 0.150154 9.11294C0.051872 9.69717 0 10.3005 0 10.9121Z" fill="#B9B9B9"/>
<path d="M0 10.912C0 16.8527 4.81582 21.6685 10.7564 21.6685C12.4409 21.6685 14.038 21.2781 15.4603 20.5874C15.5586 20.0031 15.6105 19.4025 15.6105 18.7883C15.6105 12.8449 10.7947 8.03183 4.85405 8.03183C3.16687 8.03183 1.56705 8.42222 0.147421 9.11566C0.0518693 9.69716 0 10.3005 0 10.912Z" fill="#FFD0A1"/>
<path d="M72.2647 26.6454C71.1208 25.6981 70.3291 24.3822 70.0533 22.9243C67.5854 9.90194 55.1718 0 40.2247 0C25.2776 0 12.8641 9.90194 10.3961 22.9243C10.1203 24.3822 9.32862 25.7008 8.18473 26.6454C3.6774 30.3719 0.843597 35.7611 0.843597 41.7563C0.843597 53.0041 10.8138 62.1198 23.1127 62.1198C27.4125 62.1198 31.4257 61.0059 34.8301 59.0758C38.1662 57.1838 42.2859 57.1838 45.622 59.0758C49.0264 61.0059 53.0396 62.1198 57.3395 62.1198C69.6384 62.1198 79.6086 53.0014 79.6086 41.7563C79.6086 35.7611 76.7748 30.3719 72.2647 26.6454Z" fill="#B9B9B9"/>
<path d="M53.3945 34.2186C50.4324 34.2186 47.6559 34.942 45.2671 36.2033C42.1139 37.8687 38.341 37.8687 35.1877 36.2033C32.7962 34.9393 30.0197 34.2186 27.0604 34.2186C18.0757 34.2186 10.7919 40.8663 10.7919 49.0701C10.7919 53.9596 12.8204 65 40.2302 65C67.64 65 69.6629 53.9569 69.6629 49.0701C69.6629 40.8663 62.3791 34.2186 53.3945 34.2186Z" fill="#FFD0A1"/>
<path d="M45.3026 46.1408C43.2005 46.1408 41.3413 45.0842 40.2247 43.4735C39.1109 45.0842 37.2517 46.1408 35.1468 46.1408C32.9518 46.1408 30.9043 44.9586 29.8041 43.0585C29.501 42.5371 29.6812 41.8682 30.2027 41.5652C30.7241 41.2621 31.393 41.4423 31.696 41.9638C32.4085 43.1923 33.7299 43.9567 35.1468 43.9567C37.3445 43.9567 39.1327 42.1685 39.1327 39.9708C39.1327 39.3675 39.6214 38.8788 40.2247 38.8788C40.8281 38.8788 41.3167 39.3675 41.3167 39.9708C41.3167 42.1685 43.1049 43.9567 45.3026 43.9567C46.7195 43.9567 48.0436 43.1923 48.7534 41.9638C49.0565 41.4423 49.7226 41.2621 50.2468 41.5652C50.7682 41.8682 50.9457 42.5343 50.6453 43.0585C49.5424 44.9586 47.4976 46.1408 45.3026 46.1408Z" fill="#916234"/>
<path d="M41.4014 39.9708H39.048C37.1479 39.9708 35.6109 38.4311 35.6109 36.5337C35.6109 34.6336 37.1507 33.0966 39.048 33.0966H41.4014C43.3015 33.0966 44.8385 34.6363 44.8385 36.5337C44.8412 38.4311 43.3015 39.9708 41.4014 39.9708Z" fill="#1B1C21"/>
<path d="M24.6279 33.2521C26.7734 33.2521 28.5128 31.5128 28.5128 29.3673C28.5128 27.2217 26.7734 25.4824 24.6279 25.4824C22.4823 25.4824 20.743 27.2217 20.743 29.3673C20.743 31.5128 22.4823 33.2521 24.6279 33.2521Z" fill="#1B1C21"/>
<path d="M25.5998 29.9078C26.4351 29.9078 27.1122 29.2307 27.1122 28.3954C27.1122 27.56 26.4351 26.8829 25.5998 26.8829C24.7645 26.8829 24.0873 27.56 24.0873 28.3954C24.0873 29.2307 24.7645 29.9078 25.5998 29.9078Z" fill="#E9E9E9"/>
<path d="M55.8215 33.2521C57.9671 33.2521 59.7064 31.5128 59.7064 29.3673C59.7064 27.2217 57.9671 25.4824 55.8215 25.4824C53.676 25.4824 51.9366 27.2217 51.9366 29.3673C51.9366 31.5128 53.676 33.2521 55.8215 33.2521Z" fill="#1B1C21"/>
<path d="M56.7934 29.9078C57.6287 29.9078 58.3059 29.2307 58.3059 28.3954C58.3059 27.56 57.6287 26.8829 56.7934 26.8829C55.9581 26.8829 55.281 27.56 55.281 28.3954C55.281 29.2307 55.9581 29.9078 56.7934 29.9078Z" fill="#E9E9E9"/>
<path d="M44.9723 0.338541C44.9204 5.88329 43.539 11.0513 41.1802 15.4303C40.7707 16.192 39.6814 16.192 39.2719 15.4303C36.9131 11.0513 35.5317 5.88329 35.4799 0.338541C37.0251 0.117407 38.6112 0 40.2274 0C41.8409 0 43.4271 0.117407 44.9723 0.338541Z" fill="#7C7C7C"/>
<path d="M55.625 3.84392C53.9159 7.26196 51.822 10.2759 49.4933 12.7794C48.8353 13.4865 47.6505 13.0278 47.6259 12.0641C47.544 8.60514 47.989 4.91683 49.0018 1.17938C51.3442 1.82914 53.5638 2.73006 55.625 3.84392Z" fill="#7C7C7C"/>
<path d="M30.9534 12.7827C28.6247 10.2792 26.5334 7.26522 24.8244 3.84719C26.8856 2.73059 29.1079 1.82967 31.4448 1.18265C32.4577 4.91737 32.9027 8.60568 32.8208 12.0674C32.7989 13.0311 31.6114 13.487 30.9534 12.7827Z" fill="#7C7C7C"/>
<path d="M64.1892 39.3101C67.5877 39.3101 70.3427 38.4887 70.3427 37.4755C70.3427 36.4623 67.5877 35.6409 64.1892 35.6409C60.7907 35.6409 58.0356 36.4623 58.0356 37.4755C58.0356 38.4887 60.7907 39.3101 64.1892 39.3101Z" fill="#FFAFA4"/>
<path d="M16.263 39.3101C19.6615 39.3101 22.4165 38.4887 22.4165 37.4755C22.4165 36.4623 19.6615 35.6409 16.263 35.6409C12.8645 35.6409 10.1094 36.4623 10.1094 37.4755C10.1094 38.4887 12.8645 39.3101 16.263 39.3101Z" fill="#FFAFA4"/>
<path d="M119.647 16.8955C119.481 19.1904 118.632 20.9971 117.099 22.3154C115.575 23.6338 113.563 24.293 111.063 24.293C108.329 24.293 106.176 23.375 104.604 21.5391C103.041 19.6934 102.26 17.1641 102.26 13.9512V12.6475C102.26 10.5967 102.621 8.79004 103.344 7.22754C104.066 5.66504 105.097 4.46875 106.435 3.63867C107.782 2.79883 109.345 2.37891 111.122 2.37891C113.583 2.37891 115.565 3.03809 117.069 4.35645C118.573 5.6748 119.442 7.52539 119.677 9.9082H115.282C115.175 8.53125 114.789 7.53516 114.125 6.91992C113.471 6.29492 112.47 5.98242 111.122 5.98242C109.657 5.98242 108.559 6.50977 107.826 7.56445C107.104 8.60938 106.732 10.2354 106.713 12.4424V14.0537C106.713 16.3584 107.06 18.043 107.753 19.1074C108.456 20.1719 109.56 20.7041 111.063 20.7041C112.421 20.7041 113.432 20.3965 114.096 19.7812C114.77 19.1562 115.155 18.1943 115.253 16.8955H119.647Z" fill="#3D3D3D"/>
<path d="M126.386 9.87891C127.509 8.53125 128.92 7.85742 130.619 7.85742C134.057 7.85742 135.8 9.85449 135.849 13.8486V24H131.615V13.9658C131.615 13.0576 131.42 12.3887 131.029 11.959C130.639 11.5195 129.989 11.2998 129.081 11.2998C127.841 11.2998 126.942 11.7783 126.386 12.7354V24H122.152V1.5H126.386V9.87891Z" fill="#3D3D3D"/>
<path d="M143.51 24H139.262V8.15039H143.51V24ZM139.013 4.04883C139.013 3.41406 139.223 2.8916 139.643 2.48145C140.072 2.07129 140.653 1.86621 141.386 1.86621C142.108 1.86621 142.685 2.07129 143.114 2.48145C143.544 2.8916 143.759 3.41406 143.759 4.04883C143.759 4.69336 143.539 5.2207 143.1 5.63086C142.67 6.04102 142.099 6.24609 141.386 6.24609C140.673 6.24609 140.097 6.04102 139.657 5.63086C139.228 5.2207 139.013 4.69336 139.013 4.04883Z" fill="#3D3D3D"/>
<path d="M150.907 8.15039L151.039 9.98145C152.172 8.56543 153.69 7.85742 155.595 7.85742C157.274 7.85742 158.524 8.35059 159.345 9.33691C160.165 10.3232 160.585 11.7979 160.604 13.7607V24H156.371V13.8633C156.371 12.9648 156.176 12.3154 155.785 11.915C155.395 11.5049 154.745 11.2998 153.837 11.2998C152.646 11.2998 151.752 11.8076 151.156 12.8232V24H146.923V8.15039H150.907Z" fill="#3D3D3D"/>
<path d="M170.419 20.8799C171.2 20.8799 171.835 20.665 172.323 20.2354C172.812 19.8057 173.065 19.2344 173.085 18.5215H177.055C177.045 19.5957 176.752 20.582 176.176 21.4805C175.6 22.3691 174.809 23.0625 173.803 23.5605C172.807 24.0488 171.703 24.293 170.492 24.293C168.227 24.293 166.439 23.5752 165.131 22.1396C163.822 20.6943 163.168 18.7021 163.168 16.1631V15.8848C163.168 13.4434 163.817 11.4951 165.116 10.04C166.415 8.58496 168.197 7.85742 170.463 7.85742C172.445 7.85742 174.032 8.42383 175.224 9.55664C176.425 10.6797 177.035 12.1787 177.055 14.0537H173.085C173.065 13.2334 172.812 12.5693 172.323 12.0615C171.835 11.5439 171.19 11.2852 170.39 11.2852C169.403 11.2852 168.656 11.6465 168.148 12.3691C167.65 13.082 167.401 14.2441 167.401 15.8555V16.2949C167.401 17.9258 167.65 19.0977 168.148 19.8105C168.646 20.5234 169.403 20.8799 170.419 20.8799Z" fill="#3D3D3D"/>
<path d="M183.603 9.87891C184.726 8.53125 186.137 7.85742 187.836 7.85742C191.273 7.85742 193.017 9.85449 193.065 13.8486V24H188.832V13.9658C188.832 13.0576 188.637 12.3887 188.246 11.959C187.855 11.5195 187.206 11.2998 186.298 11.2998C185.058 11.2998 184.159 11.7783 183.603 12.7354V24H179.369V1.5H183.603V9.87891Z" fill="#3D3D3D"/>
<path d="M205.443 24C205.248 23.6191 205.106 23.1455 205.019 22.5791C203.993 23.7217 202.66 24.293 201.02 24.293C199.467 24.293 198.178 23.8438 197.152 22.9453C196.137 22.0469 195.629 20.9141 195.629 19.5469C195.629 17.8672 196.249 16.5781 197.489 15.6797C198.739 14.7812 200.541 14.3271 202.895 14.3174H204.843V13.4092C204.843 12.6768 204.652 12.0908 204.271 11.6514C203.9 11.2119 203.31 10.9922 202.499 10.9922C201.786 10.9922 201.225 11.1631 200.814 11.5049C200.414 11.8467 200.214 12.3154 200.214 12.9111H195.98C195.98 11.9932 196.264 11.1436 196.83 10.3623C197.396 9.58105 198.197 8.9707 199.232 8.53125C200.268 8.08203 201.43 7.85742 202.719 7.85742C204.672 7.85742 206.22 8.35059 207.362 9.33691C208.515 10.3135 209.091 11.6904 209.091 13.4678V20.3379C209.101 21.8418 209.311 22.9795 209.721 23.751V24H205.443ZM201.942 21.0557C202.567 21.0557 203.144 20.9189 203.671 20.6455C204.198 20.3623 204.589 19.9863 204.843 19.5176V16.793H203.261C201.142 16.793 200.014 17.5254 199.877 18.9902L199.862 19.2393C199.862 19.7666 200.048 20.2012 200.419 20.543C200.79 20.8848 201.298 21.0557 201.942 21.0557Z" fill="#3D3D3D"/>
<path d="M115.736 50.2842H107.299V59H102.904V37.6719H116.791V41.2314H107.299V46.7393H115.736V50.2842Z" fill="#3D3D3D"/>
<path d="M118.08 50.9287C118.08 49.3564 118.383 47.9551 118.988 46.7246C119.594 45.4941 120.463 44.542 121.596 43.8682C122.738 43.1943 124.062 42.8574 125.565 42.8574C127.704 42.8574 129.447 43.5117 130.795 44.8203C132.152 46.1289 132.909 47.9062 133.065 50.1523L133.095 51.2363C133.095 53.668 132.416 55.6211 131.059 57.0957C129.701 58.5605 127.88 59.293 125.595 59.293C123.31 59.293 121.483 58.5605 120.116 57.0957C118.759 55.6309 118.08 53.6387 118.08 51.1191V50.9287ZM122.313 51.2363C122.313 52.7402 122.597 53.8926 123.163 54.6934C123.729 55.4844 124.54 55.8799 125.595 55.8799C126.62 55.8799 127.421 55.4893 127.997 54.708C128.573 53.917 128.861 52.6572 128.861 50.9287C128.861 49.4541 128.573 48.3115 127.997 47.501C127.421 46.6904 126.61 46.2852 125.565 46.2852C124.53 46.2852 123.729 46.6904 123.163 47.501C122.597 48.3018 122.313 49.5469 122.313 51.2363Z" fill="#3D3D3D"/>
<path d="M135.043 50.9287C135.043 49.3564 135.346 47.9551 135.951 46.7246C136.557 45.4941 137.426 44.542 138.559 43.8682C139.701 43.1943 141.024 42.8574 142.528 42.8574C144.667 42.8574 146.41 43.5117 147.758 44.8203C149.115 46.1289 149.872 47.9062 150.028 50.1523L150.058 51.2363C150.058 53.668 149.379 55.6211 148.021 57.0957C146.664 58.5605 144.843 59.293 142.558 59.293C140.272 59.293 138.446 58.5605 137.079 57.0957C135.722 55.6309 135.043 53.6387 135.043 51.1191V50.9287ZM139.276 51.2363C139.276 52.7402 139.56 53.8926 140.126 54.6934C140.692 55.4844 141.503 55.8799 142.558 55.8799C143.583 55.8799 144.384 55.4893 144.96 54.708C145.536 53.917 145.824 52.6572 145.824 50.9287C145.824 49.4541 145.536 48.3115 144.96 47.501C144.384 46.6904 143.573 46.2852 142.528 46.2852C141.493 46.2852 140.692 46.6904 140.126 47.501C139.56 48.3018 139.276 49.5469 139.276 51.2363Z" fill="#3D3D3D"/>
<path d="M152.006 50.958C152.006 48.4873 152.558 46.5195 153.661 45.0547C154.774 43.5898 156.293 42.8574 158.217 42.8574C159.76 42.8574 161.034 43.4336 162.04 44.5859V36.5H166.288V59H162.465L162.26 57.3154C161.205 58.6338 159.848 59.293 158.188 59.293C156.322 59.293 154.823 58.5605 153.69 57.0957C152.567 55.6211 152.006 53.5752 152.006 50.958ZM156.239 51.2656C156.239 52.75 156.498 53.8877 157.016 54.6787C157.533 55.4697 158.285 55.8652 159.271 55.8652C160.58 55.8652 161.503 55.3135 162.04 54.21V47.9551C161.513 46.8516 160.6 46.2998 159.301 46.2998C157.26 46.2998 156.239 47.9551 156.239 51.2656Z" fill="#3D3D3D"/>
</svg>
